<svg id="visual" viewBox="0 0 960 540" width="960" height="540" xmlns="http://www.w3.org/2000/svg" xmlns:xlink="http://www.w3.org/1999/xlink" version="1.1"><rect x="0" y="0" width="960" height="540" fill="#fff"></rect><defs><linearGradient id="grad1_0" x1="43.8%" y1="0%" x2="100%" y2="100%"><stop offset="14.444444444444446%" stop-color="#c6dbff" stop-opacity="1"></stop><stop offset="85.55555555555554%" stop-color="#c6dbff" stop-opacity="1"></stop></linearGradient></defs><defs><linearGradient id="grad1_1" x1="43.8%" y1="0%" x2="100%" y2="100%"><stop offset="14.444444444444446%" stop-color="#c6dbff" stop-opacity="1"></stop><stop offset="85.55555555555554%" stop-color="#ffffff" stop-opacity="1"></stop></linearGradient></defs><defs><linearGradient id="grad2_0" x1="0%" y1="0%" x2="56.3%" y2="100%"><stop offset="14.444444444444446%" stop-color="#c6dbff" stop-opacity="1"></stop><stop offset="85.55555555555554%" stop-color="#c6dbff" stop-opacity="1"></stop></linearGradient></defs><defs><linearGradient id="grad2_1" x1="0%" y1="0%" x2="56.3%" y2="100%"><stop offset="14.444444444444446%" stop-color="#ffffff" stop-opacity="1"></stop><stop offset="85.55555555555554%" stop-color="#c6dbff" stop-opacity="1"></stop></linearGradient></defs><g transform="translate(960, 0)"><path d="M0 243C-27.4 221.2 -54.7 199.5 -75 181.1C-95.3 162.7 -108.5 147.7 -135.8 135.8C-163 123.9 -204.3 115.1 -224.5 93C-244.7 70.9 -243.9 35.4 -243 0L0 0Z" fill="#e3edff"></path><path d="M0 121.5C-13.7 110.6 -27.4 99.7 -37.5 90.5C-47.6 81.3 -54.3 73.8 -67.9 67.9C-81.5 61.9 -102.1 57.5 -112.3 46.5C-122.4 35.4 -121.9 17.7 -121.5 0L0 0Z" fill="#c6dbff"></path></g><g transform="translate(0, 540)"><path d="M0 -243C35.8 -243.8 71.6 -244.5 93 -224.5C114.4 -204.5 121.4 -163.6 138.6 -138.6C155.8 -113.5 183.2 -104.3 202.3 -83.8C221.4 -63.3 232.2 -31.7 243 0L0 0Z" fill="#e3edff"></path><path d="M0 -121.5C17.9 -121.9 35.8 -122.3 46.5 -112.3C57.2 -102.2 60.7 -81.8 69.3 -69.3C77.9 -56.8 91.6 -52.1 101.2 -41.9C110.7 -31.7 116.1 -15.8 121.5 0L0 0Z" fill="#c6dbff"></path></g></svg>