<svg id="visual" viewBox="0 0 960 540" width="960" height="540" xmlns="http://www.w3.org/2000/svg" xmlns:xlink="http://www.w3.org/1999/xlink" version="1.1"><rect x="0" y="0" width="960" height="540" fill="#fff"></rect><defs><linearGradient id="grad1_0" x1="43.8%" y1="100%" x2="100%" y2="0%"><stop offset="14.444444444444446%" stop-color="#a9d0ff" stop-opacity="1"></stop><stop offset="85.55555555555554%" stop-color="#a9d0ff" stop-opacity="1"></stop></linearGradient></defs><defs><linearGradient id="grad1_1" x1="43.8%" y1="100%" x2="100%" y2="0%"><stop offset="14.444444444444446%" stop-color="#a9d0ff" stop-opacity="1"></stop><stop offset="85.55555555555554%" stop-color="#ffffff" stop-opacity="1"></stop></linearGradient></defs><defs><linearGradient id="grad2_0" x1="0%" y1="100%" x2="56.3%" y2="0%"><stop offset="14.444444444444446%" stop-color="#a9d0ff" stop-opacity="1"></stop><stop offset="85.55555555555554%" stop-color="#a9d0ff" stop-opacity="1"></stop></linearGradient></defs><defs><linearGradient id="grad2_1" x1="0%" y1="100%" x2="56.3%" y2="0%"><stop offset="14.444444444444446%" stop-color="#ffffff" stop-opacity="1"></stop><stop offset="85.55555555555554%" stop-color="#a9d0ff" stop-opacity="1"></stop></linearGradient></defs><g transform="translate(960, 540)"><path d="M-243 0C-226.7 -26 -210.3 -52 -201.4 -83.4C-192.5 -114.9 -190.9 -151.8 -171.8 -171.8C-152.7 -191.9 -116.1 -195.1 -84.6 -204.2C-53 -213.2 -26.5 -228.1 0 -243L0 0Z" fill="#d6e7ff"></path><path d="M-121.5 0C-113.3 -13 -105.2 -26 -100.7 -41.7C-96.2 -57.4 -95.5 -75.9 -85.9 -85.9C-76.4 -95.9 -58.1 -97.6 -42.3 -102.1C-26.5 -106.6 -13.3 -114.1 0 -121.5L0 0Z" fill="#a9d0ff"></path></g><g transform="translate(0, 0)"><path d="M243 0C223.6 25.4 204.2 50.8 194.9 80.7C185.7 110.7 186.5 145.3 171.1 171.1C155.8 196.9 124.2 214 93 224.5C61.8 235 30.9 239 0 243L0 0Z" fill="#d6e7ff"></path><path d="M121.5 0C111.8 12.7 102.1 25.4 97.5 40.4C92.8 55.4 93.2 72.7 85.6 85.6C77.9 98.5 62.1 107 46.5 112.3C30.9 117.5 15.4 119.5 0 121.5L0 0Z" fill="#a9d0ff"></path></g></svg>