<svg id="visual" viewBox="0 0 1920 1080" width="1920" height="1080" xmlns="http://www.w3.org/2000/svg" xmlns:xlink="http://www.w3.org/1999/xlink" version="1.1"><path d="M0 961L13.8 964.2C27.7 967.3 55.3 973.7 83.2 974.2C111 974.7 139 969.3 166.8 962.3C194.7 955.3 222.3 946.7 250.2 948.3C278 950 306 962 333.8 964.3C361.7 966.7 389.3 959.3 417.2 955.2C445 951 473 950 500.8 957.2C528.7 964.3 556.3 979.7 584.2 988.5C612 997.3 640 999.7 667.8 991C695.7 982.3 723.3 962.7 751.2 950.8C779 939 807 935 834.8 934C862.7 933 890.3 935 918.2 948.3C946 961.7 974 986.3 1001.8 992.2C1029.7 998 1057.3 985 1085.2 977.2C1113 969.3 1141 966.7 1168.8 972.7C1196.7 978.7 1224.3 993.3 1252.2 993C1280 992.7 1308 977.3 1335.8 975.5C1363.7 973.7 1391.3 985.3 1419.2 982.2C1447 979 1475 961 1502.8 950.7C1530.7 940.3 1558.3 937.7 1586.2 945C1614 952.3 1642 969.7 1669.8 974.5C1697.7 979.3 1725.3 971.7 1753.2 971C1781 970.3 1809 976.7 1836.8 971C1864.7 965.3 1892.3 947.7 1906.2 938.8L1920 930L1920 1081L1906.2 1081C1892.3 1081 1864.7 1081 1836.8 1081C1809 1081 1781 1081 1753.2 1081C1725.3 1081 1697.7 1081 1669.8 1081C1642 1081 1614 1081 1586.2 1081C1558.3 1081 1530.7 1081 1502.8 1081C1475 1081 1447 1081 1419.2 1081C1391.3 1081 1363.7 1081 1335.8 1081C1308 1081 1280 1081 1252.2 1081C1224.3 1081 1196.7 1081 1168.8 1081C1141 1081 1113 1081 1085.2 1081C1057.3 1081 1029.7 1081 1001.8 1081C974 1081 946 1081 918.2 1081C890.3 1081 862.7 1081 834.8 1081C807 1081 779 1081 751.2 1081C723.3 1081 695.7 1081 667.8 1081C640 1081 612 1081 584.2 1081C556.3 1081 528.7 1081 500.8 1081C473 1081 445 1081 417.2 1081C389.3 1081 361.7 1081 333.8 1081C306 1081 278 1081 250.2 1081C222.3 1081 194.7 1081 166.8 1081C139 1081 111 1081 83.2 1081C55.3 1081 27.7 1081 13.8 1081L0 1081Z" fill="#e1effa"></path><path d="M0 1013L13.8 1011.8C27.7 1010.7 55.3 1008.3 83.2 1009.8C111 1011.3 139 1016.7 166.8 1018.3C194.7 1020 222.3 1018 250.2 1014.8C278 1011.7 306 1007.3 333.8 1006.2C361.7 1005 389.3 1007 417.2 1003.7C445 1000.3 473 991.7 500.8 989.3C528.7 987 556.3 991 584.2 990.2C612 989.3 640 983.7 667.8 986C695.7 988.3 723.3 998.7 751.2 1000.5C779 1002.3 807 995.7 834.8 1000C862.7 1004.3 890.3 1019.7 918.2 1019.5C946 1019.3 974 1003.7 1001.8 998.7C1029.7 993.7 1057.3 999.3 1085.2 998C1113 996.7 1141 988.3 1168.8 990.5C1196.7 992.7 1224.3 1005.3 1252.2 1005.3C1280 1005.3 1308 992.7 1335.8 994.2C1363.7 995.7 1391.3 1011.3 1419.2 1015.7C1447 1020 1475 1013 1502.8 1009.2C1530.7 1005.3 1558.3 1004.7 1586.2 1000.5C1614 996.3 1642 988.7 1669.8 986.2C1697.7 983.7 1725.3 986.3 1753.2 993.8C1781 1001.3 1809 1013.7 1836.8 1013.2C1864.7 1012.7 1892.3 999.3 1906.2 992.7L1920 986L1920 1081L1906.2 1081C1892.3 1081 1864.7 1081 1836.8 1081C1809 1081 1781 1081 1753.2 1081C1725.3 1081 1697.7 1081 1669.8 1081C1642 1081 1614 1081 1586.2 1081C1558.3 1081 1530.7 1081 1502.8 1081C1475 1081 1447 1081 1419.2 1081C1391.3 1081 1363.7 1081 1335.8 1081C1308 1081 1280 1081 1252.2 1081C1224.3 1081 1196.7 1081 1168.8 1081C1141 1081 1113 1081 1085.2 1081C1057.3 1081 1029.7 1081 1001.8 1081C974 1081 946 1081 918.2 1081C890.3 1081 862.7 1081 834.8 1081C807 1081 779 1081 751.2 1081C723.3 1081 695.7 1081 667.8 1081C640 1081 612 1081 584.2 1081C556.3 1081 528.7 1081 500.8 1081C473 1081 445 1081 417.2 1081C389.3 1081 361.7 1081 333.8 1081C306 1081 278 1081 250.2 1081C222.3 1081 194.7 1081 166.8 1081C139 1081 111 1081 83.2 1081C55.3 1081 27.7 1081 13.8 1081L0 1081Z" fill="#84b1ff"></path></svg>